<svg width="63" height="26" viewBox="0 0 63 26" fill="none" xmlns="http://www.w3.org/2000/svg">
<path fill-rule="evenodd" clip-rule="evenodd" d="M28.9331 11.2777C31.4974 11.2777 32.9528 9.92273 32.9528 7.56865C32.9528 5.20088 31.4974 3.8596 28.947 3.8596H25.565V11.2777H28.9331ZM42.1009 18.0115C40.5346 18.0115 39.5366 17.2724 39.5366 16.1364C39.5366 14.9594 40.493 14.2887 42.3365 14.1656L45.5938 13.9603V15.0141C45.5938 16.766 44.0968 18.0115 42.1009 18.0115ZM11.8428 3.24371C11.1082 4.09227 9.94388 4.76291 8.77957 4.66711C8.64096 3.51744 9.20925 2.29934 9.87457 1.54658C10.6092 0.670639 11.8844 0.0410596 12.9101 0C13.0348 1.19073 12.5636 2.36777 11.8428 3.24371ZM17.1416 14.8455C17.1644 14.8559 17.1774 14.8618 17.1792 14.8636C17.1776 14.8682 17.1749 14.8769 17.171 14.8894C17.1046 15.0996 16.6958 16.3943 15.7931 17.7377C14.9199 18.9832 14.0467 20.2013 12.6329 20.2287C11.9739 20.2353 11.5302 20.0455 11.0692 19.8482C10.58 19.6389 10.0712 19.4212 9.2647 19.4212C8.4315 19.4212 7.89776 19.642 7.38275 19.855C6.93819 20.0389 6.50759 20.217 5.91039 20.2424C4.55203 20.2971 3.51247 18.9285 2.6531 17.683C0.892786 15.1647 -0.451709 10.5934 1.36405 7.50022C2.23728 5.95364 3.85899 4.9819 5.59159 4.95452C6.3458 4.93901 7.06438 5.22249 7.69434 5.47101C8.1758 5.66095 8.6055 5.83046 8.95976 5.83046C9.27466 5.83046 9.68739 5.67086 10.1746 5.48246C10.9313 5.18988 11.8676 4.82781 12.8962 4.88609C13.5477 4.92715 15.4327 5.11876 16.6525 6.89801C16.6477 6.90136 16.6381 6.90749 16.624 6.91642C16.3505 7.09014 14.4084 8.32343 14.4348 10.7576C14.4607 13.6242 16.8133 14.6959 17.1416 14.8455ZM29.7232 1.4234C33.3825 1.4234 35.9467 3.91435 35.9467 7.55496C35.9467 11.1956 33.3409 13.7139 29.6262 13.7139H25.565V20.0918H22.6265V1.4234H29.7232ZM42.8771 6.36424C46.2314 6.36424 48.4214 8.10243 48.4214 10.7987H48.4075V20.1055H45.6908V17.8609H45.6354C44.8592 19.3254 43.1543 20.2424 41.3108 20.2424C38.5802 20.2424 36.6813 18.6411 36.6813 16.2185C36.6813 13.8234 38.5248 12.4411 41.9346 12.2358L45.5938 12.0168V10.9903C45.5938 9.45739 44.5958 8.6362 42.7939 8.6362C41.3247 8.6362 40.2435 9.38896 40.0218 10.5386H37.3744C37.4575 8.1298 39.7584 6.36424 42.8771 6.36424ZM59.607 6.54216H62.5871L57.4448 20.8172C56.2666 24.0883 54.9221 25.1695 52.0529 25.1695C51.8312 25.1695 51.0965 25.1558 50.9302 25.1011V22.8565C51.1104 22.8702 51.5539 22.8976 51.7896 22.8976C53.0925 22.8976 53.8271 22.3501 54.2706 20.9541L54.534 20.1329L49.558 6.54216H52.6489L56.1003 17.5735H56.1557L59.607 6.54216Z" fill="white"/>
</svg>
